<?xml version="1.0" standalone="no"?>
<svg xmlns:xlink="http://www.w3.org/1999/xlink" id="wave" style="transform:rotate(0deg); transition: 0.3s" viewBox="0 0 1440 210" version="1.1" xmlns="http://www.w3.org/2000/svg"><defs><linearGradient id="sw-gradient-0" x1="0" x2="0" y1="1" y2="0"><stop stop-color="rgba(30, 30, 30, 1)" offset="0%"/><stop stop-color="rgba(30, 30, 30, 1)" offset="100%"/></linearGradient></defs><path style="transform:translate(0, 0px); opacity:1" fill="url(#sw-gradient-0)" d="M0,147L48,150.5C96,154,192,161,288,143.5C384,126,480,84,576,63C672,42,768,42,864,66.5C960,91,1056,140,1152,133C1248,126,1344,63,1440,42C1536,21,1632,42,1728,45.5C1824,49,1920,35,2016,56C2112,77,2208,133,2304,157.5C2400,182,2496,175,2592,168C2688,161,2784,154,2880,157.5C2976,161,3072,175,3168,168C3264,161,3360,133,3456,108.5C3552,84,3648,63,3744,66.5C3840,70,3936,98,4032,115.5C4128,133,4224,140,4320,143.5C4416,147,4512,147,4608,136.5C4704,126,4800,105,4896,94.5C4992,84,5088,84,5184,98C5280,112,5376,140,5472,143.5C5568,147,5664,126,5760,129.5C5856,133,5952,161,6048,168C6144,175,6240,161,6336,161C6432,161,6528,175,6624,154C6720,133,6816,77,6864,49L6912,21L6912,210L6864,210C6816,210,6720,210,6624,210C6528,210,6432,210,6336,210C6240,210,6144,210,6048,210C5952,210,5856,210,5760,210C5664,210,5568,210,5472,210C5376,210,5280,210,5184,210C5088,210,4992,210,4896,210C4800,210,4704,210,4608,210C4512,210,4416,210,4320,210C4224,210,4128,210,4032,210C3936,210,3840,210,3744,210C3648,210,3552,210,3456,210C3360,210,3264,210,3168,210C3072,210,2976,210,2880,210C2784,210,2688,210,2592,210C2496,210,2400,210,2304,210C2208,210,2112,210,2016,210C1920,210,1824,210,1728,210C1632,210,1536,210,1440,210C1344,210,1248,210,1152,210C1056,210,960,210,864,210C768,210,672,210,576,210C480,210,384,210,288,210C192,210,96,210,48,210L0,210Z"/></svg>